<?xml version="1.0" standalone="no"?>
<!DOCTYPE svg PUBLIC "-//W3C//DTD SVG 20010904//EN"
 "http://www.w3.org/TR/2001/REC-SVG-20010904/DTD/svg10.dtd">
<svg version="1.0" xmlns="http://www.w3.org/2000/svg"
 width="1080.000000pt" height="1080.000000pt" viewBox="0 0 1080.000000 1080.000000"
 preserveAspectRatio="xMidYMid meet">
<metadata>
Created by potrace 1.14, written by Peter Selinger 2001-2017
</metadata>
<g transform="translate(0.000000,1080.000000) scale(0.100000,-0.100000)"
fill="#000000" stroke="none">
<path d="M4888 10325 c-2 -2 -37 -5 -78 -9 -85 -7 -117 -11 -215 -32 -38 -8
-79 -17 -91 -19 -60 -13 -247 -82 -339 -125 -90 -43 -251 -139 -292 -175 -6
-5 -29 -23 -50 -40 -179 -141 -372 -375 -512 -619 -41 -71 -113 -212 -117
-226 0 -3 -11 -27 -23 -55 -138 -304 -274 -810 -326 -1205 -3 -25 -10 -70 -15
-100 -5 -30 -11 -77 -14 -105 -3 -27 -8 -59 -10 -70 -2 -12 -6 -36 -8 -55 l-3
-35 -365 -135 -365 -135 -3 -217 -2 -216 222 0 c123 0 233 -1 246 -1 20 -1 22
-6 22 -51 l0 -50 70 0 70 0 -5 -27 c-4 -25 -23 -169 -40 -308 -3 -27 -8 -63
-10 -80 -2 -16 -9 -73 -15 -125 -6 -52 -13 -106 -15 -120 -3 -14 -7 -47 -10
-75 -5 -45 -10 -84 -20 -155 -2 -14 -7 -50 -10 -80 -3 -30 -8 -66 -10 -80 -2
-14 -6 -50 -10 -81 -3 -31 -8 -67 -10 -80 -3 -13 -8 -49 -11 -79 -7 -75 -10
-95 -29 -235 -22 -155 -76 -534 -79 -550 -3 -17 -7 -41 -22 -140 -1 -11 -7
-45 -13 -75 -6 -30 -12 -66 -15 -80 -12 -68 -77 -418 -81 -440 -3 -14 -10 -45
-15 -70 -13 -61 -16 -75 -34 -151 -8 -37 -17 -78 -20 -90 -2 -13 -9 -44 -16
-69 -6 -25 -27 -108 -46 -185 -31 -125 -59 -231 -68 -260 -1 -5 -8 -30 -15
-55 -29 -102 -113 -374 -121 -389 -5 -9 -17 -41 -26 -71 -58 -190 -224 -566
-346 -784 -46 -82 -147 -242 -169 -270 -5 -6 -29 -39 -53 -73 -70 -97 -74
-101 -211 -238 -72 -71 -151 -143 -175 -160 -25 -16 -47 -33 -50 -36 -3 -3
-18 -14 -35 -23 -16 -9 -43 -25 -60 -36 -16 -11 -41 -25 -55 -31 -14 -6 -52
-23 -85 -39 -33 -15 -70 -31 -82 -34 -22 -7 -22 -7 9 -59 17 -29 39 -65 48
-82 54 -94 224 -383 235 -401 l14 -21 93 33 c51 18 126 48 166 68 40 20 76 36
81 36 4 0 13 -10 20 -23 6 -12 17 -31 24 -42 44 -75 101 -171 104 -174 4 -6
180 59 270 100 233 108 522 335 691 544 31 39 62 75 68 80 34 31 207 289 294
440 61 106 235 455 242 485 2 8 5 17 8 20 3 3 13 25 22 50 9 25 35 92 58 150
39 100 179 512 214 630 22 73 85 310 90 335 3 11 25 103 50 205 45 185 106
456 125 560 5 30 26 138 45 240 30 158 90 509 101 590 2 14 6 39 9 55 7 42 44
291 51 345 3 25 8 56 10 70 3 14 7 43 10 65 5 47 16 122 21 148 2 10 6 46 9
80 3 34 8 69 11 78 2 9 7 36 9 60 5 52 16 136 21 163 2 11 6 47 9 80 3 34 7
68 10 76 2 8 7 40 9 71 6 56 12 105 21 164 3 17 7 55 10 86 3 31 7 66 10 78 2
12 7 50 10 84 3 34 8 69 10 77 2 8 6 44 10 80 3 36 8 76 10 90 5 32 18 131 18
147 0 9 149 12 601 12 331 0 604 0 608 1 7 0 17 26 24 67 7 39 124 566 129
579 2 9 -61 12 -233 12 -130 0 -247 1 -258 1 -21 1 -21 3 -9 54 l12 52 -379 0
-379 0 7 50 c3 27 8 59 10 70 2 11 11 61 20 110 57 329 158 722 240 938 45
115 147 327 187 387 151 225 290 356 472 444 150 72 279 104 456 113 111 5
120 4 190 -22 41 -16 99 -41 129 -57 30 -15 58 -28 62 -28 4 0 15 14 23 31 15
27 20 30 48 24 91 -20 264 -85 365 -137 l52 -27 24 37 c39 61 146 253 146 263
0 5 4 9 9 9 5 0 11 8 14 18 5 16 57 110 97 177 9 17 29 51 43 77 l26 47 -24
15 c-26 17 -121 62 -212 99 -135 56 -331 110 -486 133 -56 8 -149 28 -207 44
-115 32 -181 47 -238 55 -20 3 -48 8 -62 10 -102 19 -208 27 -397 30 -95 1
-174 1 -175 0z"/>
<path d="M8098 7536 c-1 -2 -29 -6 -61 -10 -120 -12 -285 -62 -427 -129 -36
-17 -67 -31 -70 -32 -3 0 -16 -8 -30 -16 -14 -9 -54 -34 -90 -55 -36 -21 -111
-73 -168 -116 -57 -43 -107 -76 -113 -73 -5 4 -7 10 -4 14 4 8 55 239 55 254
0 8 -27 5 -90 -8 -14 -3 -65 -12 -115 -20 -49 -9 -136 -25 -193 -35 -57 -11
-109 -20 -116 -20 -11 0 -10 16 5 83 28 125 34 117 -73 96 -51 -9 -111 -20
-133 -23 -34 -5 -97 -17 -115 -21 -3 -1 -25 -5 -50 -9 -58 -9 -70 -12 -100
-19 -14 -3 -91 -18 -172 -32 -144 -26 -148 -28 -148 -52 0 -14 -7 -53 -16 -87
-9 -33 -17 -69 -16 -78 0 -10 -4 -20 -9 -23 -5 -4 -7 -10 -4 -14 2 -5 -2 -33
-9 -62 -8 -30 -17 -67 -19 -84 -3 -16 -33 -156 -66 -310 -33 -154 -62 -291
-64 -305 -3 -14 -20 -90 -37 -170 -18 -80 -34 -156 -36 -170 -3 -14 -7 -33
-10 -42 -3 -10 -7 -29 -10 -43 -2 -14 -6 -36 -9 -50 -3 -14 -7 -37 -10 -52 -3
-16 -8 -36 -11 -45 -3 -9 -7 -27 -9 -40 -5 -26 -23 -110 -31 -148 -3 -14 -7
-36 -10 -50 -3 -14 -9 -41 -14 -60 -5 -19 -11 -49 -14 -65 -7 -41 -85 -401
-96 -445 -5 -19 -11 -48 -13 -65 -3 -16 -33 -158 -66 -315 -34 -157 -64 -297
-66 -312 -3 -14 -14 -64 -25 -110 -10 -46 -21 -94 -24 -108 -15 -82 -37 -187
-56 -270 -12 -52 -23 -104 -26 -115 -26 -129 -57 -277 -64 -305 -5 -19 -11
-46 -13 -60 -3 -14 -21 -101 -42 -195 -20 -93 -39 -180 -41 -193 -3 -13 -16
-76 -30 -140 -14 -64 -28 -127 -30 -139 -7 -38 -13 -67 -18 -88 -2 -11 -14
-64 -25 -119 -28 -129 -30 -141 -36 -172 -3 -14 -12 -54 -20 -88 -8 -33 -17
-77 -20 -96 -3 -19 -8 -42 -10 -50 -2 -8 -6 -26 -9 -40 -3 -14 -14 -68 -26
-120 -11 -52 -22 -104 -25 -115 -8 -42 -57 -271 -61 -290 -3 -11 -7 -31 -10
-45 -3 -14 -7 -32 -9 -40 -3 -8 -7 -33 -11 -55 -3 -22 -8 -43 -10 -46 -2 -3
-6 -20 -9 -37 -3 -18 -12 -60 -20 -94 -8 -35 -16 -75 -19 -90 -4 -16 -8 -39
-11 -53 -3 -14 -7 -36 -9 -50 -3 -14 -7 -33 -10 -43 -5 -17 -15 -61 -21 -97
-2 -11 -17 -83 -35 -160 -17 -77 -33 -158 -37 -180 -3 -22 -10 -48 -15 -58 -5
-10 -8 -21 -5 -23 2 -3 -4 -33 -13 -68 -17 -59 -17 -63 -2 -60 36 7 179 34
212 39 19 3 42 8 50 10 8 2 31 7 50 10 19 3 46 8 60 10 35 7 58 12 106 19 l42
7 -4 -31 c-2 -17 -6 -35 -9 -40 -3 -4 -7 -25 -11 -46 -3 -22 -7 -50 -9 -62 -3
-20 -1 -23 18 -19 12 3 63 13 112 21 109 19 131 23 170 31 17 3 44 8 60 10 17
3 41 7 55 10 14 3 41 8 60 11 19 3 67 12 105 19 39 8 104 19 146 26 42 7 76
17 76 23 0 6 8 43 17 81 9 39 19 86 22 105 3 19 8 38 10 41 2 3 6 21 9 39 3
19 20 97 36 174 17 78 33 152 35 166 3 14 10 45 15 70 6 25 13 54 15 65 2 11
6 29 8 40 5 24 45 211 52 240 2 11 6 32 10 47 3 15 5 30 5 33 0 2 5 19 10 37
5 18 12 49 15 68 3 19 12 60 19 90 8 30 17 69 20 87 3 17 17 85 31 150 14 65
27 125 29 133 21 98 126 590 130 607 4 19 9 20 37 13 18 -5 58 -11 88 -14 30
-3 73 -11 95 -18 22 -6 42 -12 45 -13 3 -1 25 -7 50 -14 37 -11 125 -31 200
-46 8 -1 40 -6 70 -10 30 -4 64 -9 75 -12 27 -5 359 -5 410 1 22 3 63 7 90 11
106 12 235 37 345 67 41 11 82 21 90 23 34 8 210 75 275 105 189 87 260 126
410 226 296 197 533 427 788 765 59 78 157 226 157 238 0 6 5 11 10 11 6 0 10
4 10 9 0 5 20 42 43 83 65 109 189 367 240 498 41 105 122 351 131 397 2 10
13 54 24 98 11 44 23 98 28 120 4 22 8 45 10 50 5 23 24 133 28 170 15 111 18
140 25 212 5 43 7 182 5 308 -3 217 -6 268 -18 340 -3 17 -8 48 -11 70 -4 22
-10 56 -15 75 -5 19 -11 49 -14 65 -16 93 -86 285 -143 395 -68 129 -96 169
-198 278 -135 144 -310 252 -475 292 -25 6 -52 14 -60 17 -8 3 -22 7 -30 9
-48 8 -104 15 -170 20 -41 3 -93 13 -115 21 -68 27 -158 53 -210 63 -27 5 -61
12 -75 15 -26 7 -315 16 -322 11z m308 -846 c16 -19 31 -37 35 -40 14 -12 79
-141 103 -205 22 -60 48 -156 62 -231 16 -87 22 -214 19 -424 -2 -135 -5 -254
-8 -266 -3 -11 -8 -54 -12 -95 -4 -40 -8 -77 -11 -80 -2 -3 -6 -21 -8 -40 -11
-69 -18 -106 -42 -204 -13 -55 -26 -110 -29 -121 -8 -34 -84 -256 -100 -291
-8 -17 -15 -35 -15 -40 -1 -4 -9 -26 -20 -48 -11 -22 -19 -46 -20 -52 0 -7 -4
-13 -8 -13 -4 0 -13 -15 -20 -32 -30 -84 -215 -387 -294 -483 -82 -98 -175
-200 -231 -254 -105 -100 -163 -151 -173 -151 -3 0 -12 -7 -20 -15 -28 -28
-209 -143 -294 -187 -219 -114 -441 -176 -679 -192 -60 -4 -85 7 -134 59 -31
34 -80 125 -92 170 -22 89 -12 220 29 398 9 37 18 82 21 100 3 17 8 40 11 49
3 9 7 27 9 39 13 67 47 226 61 286 9 37 18 82 21 98 2 17 13 62 24 100 11 39
22 77 24 85 28 122 215 555 266 616 6 8 8 14 3 14 -5 0 -4 4 1 8 6 4 23 32 39
62 51 96 236 386 256 400 4 3 12 14 18 25 5 11 32 47 59 81 26 33 59 76 73 94
64 85 146 176 265 296 177 177 349 320 476 393 119 69 254 128 290 127 9 -1
29 -17 45 -36z"/>
</g>
</svg>
